# xmcd
#
# Track frame offsets:
#	150
#	17562
#	41812
#
# Disc length: 943 seconds
#
# Revision: 4
# Processed by: cddbd v1.5.2PL0 Copyright (c) Steve Scherf et al.
# Submitted via: audiograbber 1.83.01
#
DISCID=1c03ad03
DTITLE=Queen dance traxx featuring Blümchen - Bicycle Race
DYEAR=1996
DGENRE=Techno
TTITLE0=Bicycle race (On the air Mix)
TTITLE1=Bicycle race (Long race Mix)
TTITLE2=Where hearts have wings (Album Mix)
EXTD=
EXTT0=
EXTT1=
EXTT2=
PLAYORDER=
